<?xml version="1.0" encoding="UTF-8" standalone="no"?>
<!DOCTYPE svg PUBLIC "-//W3C//DTD SVG 1.1//EN"
 "http://www.w3.org/Graphics/SVG/1.1/DTD/svg11.dtd">
<!-- Generated by graphviz version 2.38.0 (20140413.2041)
 -->
<!-- Title: models_diagram Pages: 1 -->
<svg width="633pt" height="660pt"
 viewBox="0.00 0.00 633.01 660.00" xmlns="http://www.w3.org/2000/svg" xmlns:xlink="http://www.w3.org/1999/xlink">
<g id="graph0" class="graph" transform="scale(1 1) rotate(0) translate(4 656)">
<title>models_diagram</title>
<polygon fill="white" stroke="none" points="-4,4 -4,-656 629.011,-656 629.011,4 -4,4"/>
<!-- Album -->
<g id="node1" class="node"><title>Album</title>
<path fill="none" stroke="black" d="M202,-172.5C202,-172.5 311.011,-172.5 311.011,-172.5 317.011,-172.5 323.011,-178.5 323.011,-184.5 323.011,-184.5 323.011,-274.5 323.011,-274.5 323.011,-280.5 317.011,-286.5 311.011,-286.5 311.011,-286.5 202,-286.5 202,-286.5 196,-286.5 190,-280.5 190,-274.5 190,-274.5 190,-184.5 190,-184.5 190,-178.5 196,-172.5 202,-172.5"/>
<text text-anchor="middle" x="256.505" y="-271.3" font-family="Times,serif" font-size="14.00">Album</text>
<polyline fill="none" stroke="black" points="190,-264.5 323.011,-264.5 "/>
<text text-anchor="start" x="198" y="-249.3" font-family="Times,serif" font-size="14.00">id :integer</text>
<text text-anchor="start" x="198" y="-235.3" font-family="Times,serif" font-size="14.00">profile_id :integer</text>
<text text-anchor="start" x="198" y="-221.3" font-family="Times,serif" font-size="14.00">title :string</text>
<text text-anchor="start" x="198" y="-207.3" font-family="Times,serif" font-size="14.00">image :text</text>
<text text-anchor="start" x="198" y="-193.3" font-family="Times,serif" font-size="14.00">created_at :datetime</text>
<text text-anchor="start" x="198" y="-179.3" font-family="Times,serif" font-size="14.00">updated_at :datetime</text>
</g>
<!-- Comment -->
<g id="node2" class="node"><title>Comment</title>
<path fill="none" stroke="black" d="M230,-0.5C230,-0.5 339.011,-0.5 339.011,-0.5 345.011,-0.5 351.011,-6.5 351.011,-12.5 351.011,-12.5 351.011,-116.5 351.011,-116.5 351.011,-122.5 345.011,-128.5 339.011,-128.5 339.011,-128.5 230,-128.5 230,-128.5 224,-128.5 218,-122.5 218,-116.5 218,-116.5 218,-12.5 218,-12.5 218,-6.5 224,-0.5 230,-0.5"/>
<text text-anchor="middle" x="284.505" y="-113.3" font-family="Times,serif" font-size="14.00">Comment</text>
<polyline fill="none" stroke="black" points="218,-106.5 351.011,-106.5 "/>
<text text-anchor="start" x="226" y="-91.3" font-family="Times,serif" font-size="14.00">id :integer</text>
<text text-anchor="start" x="226" y="-77.3" font-family="Times,serif" font-size="14.00">user_id :integer</text>
<text text-anchor="start" x="226" y="-63.3" font-family="Times,serif" font-size="14.00">multi_id :integer</text>
<text text-anchor="start" x="226" y="-49.3" font-family="Times,serif" font-size="14.00">multi_type :string</text>
<text text-anchor="start" x="226" y="-35.3" font-family="Times,serif" font-size="14.00">content :text</text>
<text text-anchor="start" x="226" y="-21.3" font-family="Times,serif" font-size="14.00">created_at :datetime</text>
<text text-anchor="start" x="226" y="-7.3" font-family="Times,serif" font-size="14.00">updated_at :datetime</text>
</g>
<!-- Picture -->
<g id="node3" class="node"><title>Picture</title>
<path fill="none" stroke="black" d="M12,-165.5C12,-165.5 121.011,-165.5 121.011,-165.5 127.011,-165.5 133.011,-171.5 133.011,-177.5 133.011,-177.5 133.011,-281.5 133.011,-281.5 133.011,-287.5 127.011,-293.5 121.011,-293.5 121.011,-293.5 12,-293.5 12,-293.5 6,-293.5 0,-287.5 0,-281.5 0,-281.5 0,-177.5 0,-177.5 0,-171.5 6,-165.5 12,-165.5"/>
<text text-anchor="middle" x="66.5054" y="-278.3" font-family="Times,serif" font-size="14.00">Picture</text>
<polyline fill="none" stroke="black" points="0,-271.5 133.011,-271.5 "/>
<text text-anchor="start" x="8" y="-256.3" font-family="Times,serif" font-size="14.00">id :integer</text>
<text text-anchor="start" x="8" y="-242.3" font-family="Times,serif" font-size="14.00">album_id :integer</text>
<text text-anchor="start" x="8" y="-228.3" font-family="Times,serif" font-size="14.00">caption :string</text>
<text text-anchor="start" x="8" y="-214.3" font-family="Times,serif" font-size="14.00">description :text</text>
<text text-anchor="start" x="8" y="-200.3" font-family="Times,serif" font-size="14.00">image :text</text>
<text text-anchor="start" x="8" y="-186.3" font-family="Times,serif" font-size="14.00">created_at :datetime</text>
<text text-anchor="start" x="8" y="-172.3" font-family="Times,serif" font-size="14.00">updated_at :datetime</text>
</g>
<!-- Picture&#45;&gt;Comment -->
<g id="edge1" class="edge"><title>Picture&#45;&gt;Comment</title>
<path fill="none" stroke="#cf8441" d="M139.457,-171.11C142.168,-169.04 144.858,-166.998 147.505,-165 167.509,-149.903 189.383,-133.826 209.663,-119.097"/>
<ellipse fill="none" stroke="#cf8441" cx="136.276" cy="-173.547" rx="4.00002" ry="4.00002"/>
<polygon fill="#cf8441" stroke="#cf8441" points="209.85,-118.961 220.588,-116.735 213.898,-116.026 217.946,-113.091 217.946,-113.091 217.946,-113.091 213.898,-116.026 215.305,-109.448 209.85,-118.961 209.85,-118.961"/>
</g>
<!-- Post -->
<g id="node4" class="node"><title>Post</title>
<path fill="none" stroke="black" d="M353,-179.5C353,-179.5 462.011,-179.5 462.011,-179.5 468.011,-179.5 474.011,-185.5 474.011,-191.5 474.011,-191.5 474.011,-267.5 474.011,-267.5 474.011,-273.5 468.011,-279.5 462.011,-279.5 462.011,-279.5 353,-279.5 353,-279.5 347,-279.5 341,-273.5 341,-267.5 341,-267.5 341,-191.5 341,-191.5 341,-185.5 347,-179.5 353,-179.5"/>
<text text-anchor="middle" x="407.505" y="-264.3" font-family="Times,serif" font-size="14.00">Post</text>
<polyline fill="none" stroke="black" points="341,-257.5 474.011,-257.5 "/>
<text text-anchor="start" x="349" y="-242.3" font-family="Times,serif" font-size="14.00">id :integer</text>
<text text-anchor="start" x="349" y="-228.3" font-family="Times,serif" font-size="14.00">profile_id :integer</text>
<text text-anchor="start" x="349" y="-214.3" font-family="Times,serif" font-size="14.00">content :text</text>
<text text-anchor="start" x="349" y="-200.3" font-family="Times,serif" font-size="14.00">created_at :datetime</text>
<text text-anchor="start" x="349" y="-186.3" font-family="Times,serif" font-size="14.00">updated_at :datetime</text>
</g>
<!-- Post&#45;&gt;Comment -->
<g id="edge2" class="edge"><title>Post&#45;&gt;Comment</title>
<path fill="none" stroke="#be0f0b" d="M365.406,-172.709C356.689,-161.158 347.394,-148.84 338.325,-136.821"/>
<ellipse fill="none" stroke="#be0f0b" cx="367.858" cy="-175.959" rx="4.00002" ry="4.00002"/>
<polygon fill="#be0f0b" stroke="#be0f0b" points="338.116,-136.544 335.684,-125.851 335.104,-132.553 332.092,-128.562 332.092,-128.562 332.092,-128.562 335.104,-132.553 328.5,-131.273 338.116,-136.544 338.116,-136.544"/>
</g>
<!-- Profile -->
<g id="node5" class="node"><title>Profile</title>
<path fill="none" stroke="black" d="M272.666,-330.5C272.666,-330.5 400.345,-330.5 400.345,-330.5 406.345,-330.5 412.345,-336.5 412.345,-342.5 412.345,-342.5 412.345,-460.5 412.345,-460.5 412.345,-466.5 406.345,-472.5 400.345,-472.5 400.345,-472.5 272.666,-472.5 272.666,-472.5 266.666,-472.5 260.666,-466.5 260.666,-460.5 260.666,-460.5 260.666,-342.5 260.666,-342.5 260.666,-336.5 266.666,-330.5 272.666,-330.5"/>
<text text-anchor="middle" x="336.505" y="-457.3" font-family="Times,serif" font-size="14.00">Profile</text>
<polyline fill="none" stroke="black" points="260.666,-450.5 412.345,-450.5 "/>
<text text-anchor="start" x="268.666" y="-435.3" font-family="Times,serif" font-size="14.00">id :integer</text>
<text text-anchor="start" x="268.666" y="-421.3" font-family="Times,serif" font-size="14.00">user_id :integer</text>
<text text-anchor="start" x="268.666" y="-407.3" font-family="Times,serif" font-size="14.00">about :text</text>
<text text-anchor="start" x="268.666" y="-393.3" font-family="Times,serif" font-size="14.00">avatar :text</text>
<text text-anchor="start" x="268.666" y="-379.3" font-family="Times,serif" font-size="14.00">background_image :text</text>
<text text-anchor="start" x="268.666" y="-365.3" font-family="Times,serif" font-size="14.00">header_image :text</text>
<text text-anchor="start" x="268.666" y="-351.3" font-family="Times,serif" font-size="14.00">created_at :datetime</text>
<text text-anchor="start" x="268.666" y="-337.3" font-family="Times,serif" font-size="14.00">updated_at :datetime</text>
</g>
<!-- Profile&#45;&gt;Album -->
<g id="edge4" class="edge"><title>Profile&#45;&gt;Album</title>
<path fill="none" stroke="#0ff4a6" d="M299.955,-322.83C295.704,-313.798 291.401,-304.654 287.24,-295.811"/>
<ellipse fill="none" stroke="#0ff4a6" cx="301.801" cy="-326.754" rx="4.00002" ry="4.00002"/>
<polygon fill="#0ff4a6" stroke="#0ff4a6" points="287.221,-295.77 287.035,-284.806 285.092,-291.246 282.963,-286.722 282.963,-286.722 282.963,-286.722 285.092,-291.246 278.891,-288.638 287.221,-295.77 287.221,-295.77"/>
</g>
<!-- Profile&#45;&gt;Post -->
<g id="edge3" class="edge"><title>Profile&#45;&gt;Post</title>
<path fill="none" stroke="#a02f21" d="M368.976,-322.752C373.706,-311.429 378.507,-299.932 383.042,-289.074"/>
<ellipse fill="none" stroke="#a02f21" cx="367.335" cy="-326.682" rx="4.00001" ry="4.00001"/>
<polygon fill="#a02f21" stroke="#a02f21" points="383.096,-288.945 391.102,-281.452 385.023,-284.331 386.95,-279.717 386.95,-279.717 386.95,-279.717 385.023,-284.331 382.797,-277.983 383.096,-288.945 383.096,-288.945"/>
</g>
<!-- Song -->
<g id="node6" class="node"><title>Song</title>
<path fill="none" stroke="black" d="M504,-165.5C504,-165.5 613.011,-165.5 613.011,-165.5 619.011,-165.5 625.011,-171.5 625.011,-177.5 625.011,-177.5 625.011,-281.5 625.011,-281.5 625.011,-287.5 619.011,-293.5 613.011,-293.5 613.011,-293.5 504,-293.5 504,-293.5 498,-293.5 492,-287.5 492,-281.5 492,-281.5 492,-177.5 492,-177.5 492,-171.5 498,-165.5 504,-165.5"/>
<text text-anchor="middle" x="558.505" y="-278.3" font-family="Times,serif" font-size="14.00">Song</text>
<polyline fill="none" stroke="black" points="492,-271.5 625.011,-271.5 "/>
<text text-anchor="start" x="500" y="-256.3" font-family="Times,serif" font-size="14.00">id :integer</text>
<text text-anchor="start" x="500" y="-242.3" font-family="Times,serif" font-size="14.00">profile_id :integer</text>
<text text-anchor="start" x="500" y="-228.3" font-family="Times,serif" font-size="14.00">artist :string</text>
<text text-anchor="start" x="500" y="-214.3" font-family="Times,serif" font-size="14.00">title :string</text>
<text text-anchor="start" x="500" y="-200.3" font-family="Times,serif" font-size="14.00">genre :string</text>
<text text-anchor="start" x="500" y="-186.3" font-family="Times,serif" font-size="14.00">created_at :datetime</text>
<text text-anchor="start" x="500" y="-172.3" font-family="Times,serif" font-size="14.00">updated_at :datetime</text>
</g>
<!-- Profile&#45;&gt;Song -->
<g id="edge5" class="edge"><title>Profile&#45;&gt;Song</title>
<path fill="none" stroke="#ec1a99" d="M419.023,-342.389C440.271,-326.972 462.937,-310.121 483.505,-294 483.589,-293.934 483.673,-293.868 483.757,-293.802"/>
<ellipse fill="none" stroke="#ec1a99" cx="415.719" cy="-344.78" rx="4.00002" ry="4.00002"/>
<polygon fill="#ec1a99" stroke="#ec1a99" points="483.823,-293.75 494.453,-291.055 487.739,-290.641 491.654,-287.531 491.654,-287.531 491.654,-287.531 487.739,-290.641 488.856,-284.007 483.823,-293.75 483.823,-293.75"/>
</g>
<!-- Song&#45;&gt;Comment -->
<g id="edge6" class="edge"><title>Song&#45;&gt;Comment</title>
<path fill="none" stroke="#35eaa2" d="M485.029,-166.013C484.521,-165.672 484.013,-165.335 483.505,-165 444.863,-139.511 398.789,-116.081 360.71,-98.3682"/>
<ellipse fill="none" stroke="#35eaa2" cx="488.351" cy="-168.311" rx="4.00002" ry="4.00002"/>
<polygon fill="#35eaa2" stroke="#35eaa2" points="360.293,-98.1759 353.094,-89.9035 355.752,-96.0831 351.211,-93.9904 351.211,-93.9904 351.211,-93.9904 355.752,-96.0831 349.327,-98.0773 360.293,-98.1759 360.293,-98.1759"/>
</g>
<!-- User -->
<g id="node7" class="node"><title>User</title>
<path fill="none" stroke="black" d="M151.204,-509.5C151.204,-509.5 275.807,-509.5 275.807,-509.5 281.807,-509.5 287.807,-515.5 287.807,-521.5 287.807,-521.5 287.807,-639.5 287.807,-639.5 287.807,-645.5 281.807,-651.5 275.807,-651.5 275.807,-651.5 151.204,-651.5 151.204,-651.5 145.204,-651.5 139.204,-645.5 139.204,-639.5 139.204,-639.5 139.204,-521.5 139.204,-521.5 139.204,-515.5 145.204,-509.5 151.204,-509.5"/>
<text text-anchor="middle" x="213.505" y="-636.3" font-family="Times,serif" font-size="14.00">User</text>
<polyline fill="none" stroke="black" points="139.204,-629.5 287.807,-629.5 "/>
<text text-anchor="start" x="147.204" y="-614.3" font-family="Times,serif" font-size="14.00">id :integer</text>
<text text-anchor="start" x="147.204" y="-600.3" font-family="Times,serif" font-size="14.00">first_name :string</text>
<text text-anchor="start" x="147.204" y="-586.3" font-family="Times,serif" font-size="14.00">last_name :string</text>
<text text-anchor="start" x="147.204" y="-572.3" font-family="Times,serif" font-size="14.00">email :string</text>
<text text-anchor="start" x="147.204" y="-558.3" font-family="Times,serif" font-size="14.00">dob :date</text>
<text text-anchor="start" x="147.204" y="-544.3" font-family="Times,serif" font-size="14.00">password_digest :string</text>
<text text-anchor="start" x="147.204" y="-530.3" font-family="Times,serif" font-size="14.00">created_at :datetime</text>
<text text-anchor="start" x="147.204" y="-516.3" font-family="Times,serif" font-size="14.00">updated_at :datetime</text>
</g>
<!-- User&#45;&gt;Comment -->
<g id="edge8" class="edge"><title>User&#45;&gt;Comment</title>
<path fill="none" stroke="#9f27d0" d="M186.265,-501.281C160.977,-415.228 133.682,-274.599 180.505,-165 187.399,-148.865 198.335,-134.095 210.578,-121.155"/>
<ellipse fill="none" stroke="#9f27d0" cx="187.48" cy="-505.346" rx="4.00001" ry="4.00001"/>
<polygon fill="#9f27d0" stroke="#9f27d0" points="210.877,-120.854 221.113,-116.92 214.397,-117.303 217.917,-113.752 217.917,-113.752 217.917,-113.752 214.397,-117.303 214.721,-110.584 210.877,-120.854 210.877,-120.854"/>
</g>
<!-- User&#45;&gt;Profile -->
<g id="edge7" class="edge"><title>User&#45;&gt;Profile</title>
<path fill="none" stroke="#9857cf" d="M267.041,-502.461C272.319,-494.866 277.677,-487.156 282.955,-479.561"/>
<ellipse fill="none" stroke="#9857cf" cx="264.578" cy="-506.006" rx="4.00002" ry="4.00002"/>
<ellipse fill="#9857cf" stroke="#9857cf" cx="285.492" cy="-475.909" rx="4.00002" ry="4.00002"/>
</g>
</g>
</svg>
